<mxfile host="app.diagrams.net" modified="2022-01-16T14:15:03.207Z" agent="5.0 (Windows NT 10.0; Win64; x64) AppleWebKit/537.36 (KHTML, like Gecko) Chrome/97.0.4692.71 Safari/537.36" etag="qFxKYjgoTSNIsiMcjH3B" version="16.2.7" type="github">
  <diagram id="zXCXFXKVlTWRwr5z6wtg" name="Page-1">
    <mxGraphModel dx="981" dy="552" grid="1" gridSize="10" guides="1" tooltips="1" connect="1" arrows="1" fold="1" page="1" pageScale="1" pageWidth="827" pageHeight="1169" math="0" shadow="0">
      <root>
        <mxCell id="0" />
        <mxCell id="1" parent="0" />
        <mxCell id="RVWNwLYk18Ulpdr95SKA-10" style="edgeStyle=orthogonalEdgeStyle;rounded=0;orthogonalLoop=1;jettySize=auto;html=1;fontFamily=Verdana;fontSize=15;fontColor=#99BBFF;dashed=1;fillColor=#f5f5f5;strokeColor=#666666;" edge="1" parent="1" source="RVWNwLYk18Ulpdr95SKA-1" target="RVWNwLYk18Ulpdr95SKA-9">
          <mxGeometry relative="1" as="geometry" />
        </mxCell>
        <mxCell id="RVWNwLYk18Ulpdr95SKA-21" style="edgeStyle=orthogonalEdgeStyle;rounded=0;orthogonalLoop=1;jettySize=auto;html=1;fontFamily=Verdana;fontSize=15;fontColor=#050608;" edge="1" parent="1" source="RVWNwLYk18Ulpdr95SKA-1" target="RVWNwLYk18Ulpdr95SKA-17">
          <mxGeometry relative="1" as="geometry" />
        </mxCell>
        <mxCell id="RVWNwLYk18Ulpdr95SKA-26" style="edgeStyle=orthogonalEdgeStyle;rounded=0;orthogonalLoop=1;jettySize=auto;html=1;exitX=0.25;exitY=0;exitDx=0;exitDy=0;entryX=0.25;entryY=1;entryDx=0;entryDy=0;fontFamily=Helvetica;fontSize=10;fontColor=#050608;" edge="1" parent="1" source="RVWNwLYk18Ulpdr95SKA-1" target="RVWNwLYk18Ulpdr95SKA-16">
          <mxGeometry relative="1" as="geometry" />
        </mxCell>
        <mxCell id="RVWNwLYk18Ulpdr95SKA-1" value="&lt;font style=&quot;font-size: 23px&quot; color=&quot;#7092ff&quot;&gt;Data&lt;/font&gt;" style="rounded=1;whiteSpace=wrap;html=1;fillColor=#f5f5f5;fontColor=#333333;strokeColor=#666666;sketch=1;shadow=0;glass=0;" vertex="1" parent="1">
          <mxGeometry x="154.99999999999997" y="428" width="100" height="50" as="geometry" />
        </mxCell>
        <mxCell id="RVWNwLYk18Ulpdr95SKA-2" value="Data Version Controller" style="swimlane;shadow=0;glass=0;sketch=1;fontSize=15;fillColor=#d5e8d4;strokeColor=#82b366;gradientColor=none;swimlaneFillColor=none;rounded=0;fontColor=#99BBFF;" vertex="1" parent="1">
          <mxGeometry x="110" y="288" width="210" height="132" as="geometry" />
        </mxCell>
        <mxCell id="RVWNwLYk18Ulpdr95SKA-3" value="dvc" style="whiteSpace=wrap;html=1;rounded=0;shadow=0;glass=0;sketch=1;fontSize=15;fontColor=#7092FF;gradientColor=none;" vertex="1" parent="RVWNwLYk18Ulpdr95SKA-2">
          <mxGeometry x="15" y="32" width="40" height="20" as="geometry" />
        </mxCell>
        <mxCell id="RVWNwLYk18Ulpdr95SKA-15" value="Add" style="whiteSpace=wrap;html=1;rounded=0;shadow=0;glass=0;sketch=1;fontSize=15;fontColor=#7092FF;gradientColor=none;" vertex="1" parent="RVWNwLYk18Ulpdr95SKA-2">
          <mxGeometry x="5" y="82.00000000000011" width="40" height="20" as="geometry" />
        </mxCell>
        <mxCell id="RVWNwLYk18Ulpdr95SKA-16" value="Modify" style="whiteSpace=wrap;html=1;rounded=0;shadow=0;glass=0;sketch=1;fontSize=15;fontColor=#7092FF;gradientColor=none;" vertex="1" parent="RVWNwLYk18Ulpdr95SKA-2">
          <mxGeometry x="55" y="82" width="60" height="20" as="geometry" />
        </mxCell>
        <mxCell id="RVWNwLYk18Ulpdr95SKA-17" value="Compare" style="whiteSpace=wrap;html=1;rounded=0;shadow=0;glass=0;sketch=1;fontSize=15;fontColor=#7092FF;gradientColor=none;" vertex="1" parent="RVWNwLYk18Ulpdr95SKA-2">
          <mxGeometry x="125.00000000000001" y="82" width="70" height="20" as="geometry" />
        </mxCell>
        <mxCell id="RVWNwLYk18Ulpdr95SKA-5" value="Code Version Controller" style="swimlane;shadow=0;glass=0;sketch=1;fontSize=15;fillColor=#d5e8d4;strokeColor=#82b366;gradientColor=none;swimlaneFillColor=none;rounded=0;fontColor=#99BBFF;" vertex="1" parent="1">
          <mxGeometry x="480" y="288" width="210" height="132" as="geometry" />
        </mxCell>
        <mxCell id="RVWNwLYk18Ulpdr95SKA-6" value="Git" style="whiteSpace=wrap;html=1;rounded=0;shadow=0;glass=0;sketch=1;fontSize=15;fontColor=#7092FF;gradientColor=none;" vertex="1" parent="RVWNwLYk18Ulpdr95SKA-5">
          <mxGeometry x="150" y="32" width="40" height="20" as="geometry" />
        </mxCell>
        <mxCell id="RVWNwLYk18Ulpdr95SKA-18" value="Compare" style="whiteSpace=wrap;html=1;rounded=0;shadow=0;glass=0;sketch=1;fontSize=15;fontColor=#7092FF;gradientColor=none;" vertex="1" parent="RVWNwLYk18Ulpdr95SKA-5">
          <mxGeometry x="5" y="82" width="70" height="20" as="geometry" />
        </mxCell>
        <mxCell id="RVWNwLYk18Ulpdr95SKA-19" value="Modify" style="whiteSpace=wrap;html=1;rounded=0;shadow=0;glass=0;sketch=1;fontSize=15;fontColor=#7092FF;gradientColor=none;" vertex="1" parent="RVWNwLYk18Ulpdr95SKA-5">
          <mxGeometry x="85.00000000000001" y="82" width="60" height="20" as="geometry" />
        </mxCell>
        <mxCell id="RVWNwLYk18Ulpdr95SKA-20" value="Add" style="whiteSpace=wrap;html=1;rounded=0;shadow=0;glass=0;sketch=1;fontSize=15;fontColor=#7092FF;gradientColor=none;" vertex="1" parent="RVWNwLYk18Ulpdr95SKA-5">
          <mxGeometry x="154.99999999999997" y="82.00000000000011" width="40" height="20" as="geometry" />
        </mxCell>
        <mxCell id="RVWNwLYk18Ulpdr95SKA-7" value="Local / Cloud" style="shape=cube;whiteSpace=wrap;html=1;boundedLbl=1;backgroundOutline=1;darkOpacity=0.05;darkOpacity2=0.1;rounded=0;shadow=0;glass=0;sketch=1;fontFamily=Verdana;fontSize=20;fillColor=#e1d5e7;strokeColor=#9673a6;" vertex="1" parent="1">
          <mxGeometry x="320" y="180" width="170" height="80" as="geometry" />
        </mxCell>
        <mxCell id="RVWNwLYk18Ulpdr95SKA-11" style="edgeStyle=orthogonalEdgeStyle;rounded=1;orthogonalLoop=1;jettySize=auto;html=1;entryX=0.411;entryY=1.062;entryDx=0;entryDy=0;entryPerimeter=0;fontFamily=Verdana;fontSize=15;fontColor=#99BBFF;dashed=1;fillColor=#f5f5f5;strokeColor=default;" edge="1" parent="1" source="RVWNwLYk18Ulpdr95SKA-9" target="RVWNwLYk18Ulpdr95SKA-1">
          <mxGeometry relative="1" as="geometry">
            <Array as="points">
              <mxPoint x="695" y="454" />
              <mxPoint x="695" y="510" />
              <mxPoint x="195.99999999999997" y="510" />
            </Array>
          </mxGeometry>
        </mxCell>
        <mxCell id="RVWNwLYk18Ulpdr95SKA-12" value="&lt;font color=&quot;#050608&quot;&gt;Results/Models&lt;/font&gt;" style="edgeLabel;html=1;align=center;verticalAlign=middle;resizable=0;points=[];fontSize=15;fontFamily=Verdana;fontColor=#99BBFF;" vertex="1" connectable="0" parent="RVWNwLYk18Ulpdr95SKA-11">
          <mxGeometry x="0.3747" y="1" relative="1" as="geometry">
            <mxPoint as="offset" />
          </mxGeometry>
        </mxCell>
        <mxCell id="RVWNwLYk18Ulpdr95SKA-25" style="edgeStyle=orthogonalEdgeStyle;rounded=0;orthogonalLoop=1;jettySize=auto;html=1;entryX=0.5;entryY=1;entryDx=0;entryDy=0;fontFamily=Helvetica;fontSize=10;fontColor=#050608;" edge="1" parent="1" source="RVWNwLYk18Ulpdr95SKA-9" target="RVWNwLYk18Ulpdr95SKA-19">
          <mxGeometry relative="1" as="geometry">
            <Array as="points">
              <mxPoint x="675" y="453" />
              <mxPoint x="675" y="410" />
              <mxPoint x="595" y="410" />
            </Array>
          </mxGeometry>
        </mxCell>
        <mxCell id="RVWNwLYk18Ulpdr95SKA-9" value="&lt;font style=&quot;line-height: 2.7 ; font-size: 15px&quot;&gt;Process Functions&amp;nbsp; &amp;nbsp; &amp;nbsp; &amp;nbsp; &amp;nbsp; &amp;nbsp; &amp;nbsp; &amp;nbsp; &amp;nbsp; &amp;nbsp; &amp;nbsp;&amp;nbsp;&lt;/font&gt;" style="triangle;whiteSpace=wrap;html=1;rounded=0;shadow=0;glass=0;sketch=1;fontFamily=Verdana;fontSize=20;fillColor=#f8cecc;strokeColor=#b85450;" vertex="1" parent="1">
          <mxGeometry x="392" y="427" width="256" height="52" as="geometry" />
        </mxCell>
        <mxCell id="RVWNwLYk18Ulpdr95SKA-22" style="edgeStyle=orthogonalEdgeStyle;rounded=0;orthogonalLoop=1;jettySize=auto;html=1;entryX=0;entryY=0.5;entryDx=0;entryDy=0;fontFamily=Verdana;fontSize=15;fontColor=#050608;" edge="1" parent="1" source="RVWNwLYk18Ulpdr95SKA-17" target="RVWNwLYk18Ulpdr95SKA-18">
          <mxGeometry relative="1" as="geometry" />
        </mxCell>
        <mxCell id="RVWNwLYk18Ulpdr95SKA-24" value="&lt;font style=&quot;font-size: 10px&quot;&gt;Check If Saved&lt;/font&gt;" style="edgeLabel;html=1;align=center;verticalAlign=middle;resizable=0;points=[];fontSize=15;fontFamily=Helvetica;fontColor=#050608;" vertex="1" connectable="0" parent="RVWNwLYk18Ulpdr95SKA-22">
          <mxGeometry x="-0.081" y="-2" relative="1" as="geometry">
            <mxPoint y="-3" as="offset" />
          </mxGeometry>
        </mxCell>
        <mxCell id="RVWNwLYk18Ulpdr95SKA-23" style="edgeStyle=orthogonalEdgeStyle;rounded=0;orthogonalLoop=1;jettySize=auto;html=1;entryX=0.502;entryY=0.208;entryDx=0;entryDy=0;entryPerimeter=0;fontFamily=Verdana;fontSize=15;fontColor=#050608;" edge="1" parent="1" source="RVWNwLYk18Ulpdr95SKA-18" target="RVWNwLYk18Ulpdr95SKA-9">
          <mxGeometry relative="1" as="geometry" />
        </mxCell>
        <mxCell id="RVWNwLYk18Ulpdr95SKA-28" style="edgeStyle=orthogonalEdgeStyle;rounded=1;orthogonalLoop=1;jettySize=auto;html=1;entryX=0;entryY=0;entryDx=0;entryDy=30;entryPerimeter=0;fontFamily=Helvetica;fontSize=10;fontColor=#050608;" edge="1" parent="1" source="RVWNwLYk18Ulpdr95SKA-16" target="RVWNwLYk18Ulpdr95SKA-7">
          <mxGeometry relative="1" as="geometry">
            <Array as="points">
              <mxPoint x="200" y="210" />
            </Array>
          </mxGeometry>
        </mxCell>
        <mxCell id="RVWNwLYk18Ulpdr95SKA-35" style="edgeStyle=orthogonalEdgeStyle;rounded=1;orthogonalLoop=1;jettySize=auto;html=1;fontFamily=Helvetica;fontSize=10;fontColor=#050608;strokeColor=default;entryX=0;entryY=0;entryDx=170;entryDy=50;entryPerimeter=0;" edge="1" parent="1" source="RVWNwLYk18Ulpdr95SKA-19" target="RVWNwLYk18Ulpdr95SKA-7">
          <mxGeometry relative="1" as="geometry">
            <mxPoint x="490" y="210" as="targetPoint" />
            <Array as="points">
              <mxPoint x="600" y="230" />
            </Array>
          </mxGeometry>
        </mxCell>
        <mxCell id="RVWNwLYk18Ulpdr95SKA-37" style="edgeStyle=orthogonalEdgeStyle;rounded=1;orthogonalLoop=1;jettySize=auto;html=1;fontFamily=Helvetica;fontSize=10;fontColor=#050608;strokeColor=default;" edge="1" parent="1" source="RVWNwLYk18Ulpdr95SKA-16">
          <mxGeometry relative="1" as="geometry">
            <mxPoint x="600" y="339.9999999999999" as="targetPoint" />
            <Array as="points">
              <mxPoint x="200" y="340" />
            </Array>
          </mxGeometry>
        </mxCell>
      </root>
    </mxGraphModel>
  </diagram>
</mxfile>
